<svg width="12" height="12" viewBox="0 0 12 12" fill="none" xmlns="http://www.w3.org/2000/svg">
<path d="M1.76273 5.42275C2.30053 5.41324 2.7865 5.38566 3.26914 5.46887C3.32002 5.47743 3.37898 5.44938 3.43272 5.43321C3.69757 5.35332 3.96338 5.34239 4.23299 5.41134C4.46742 5.47125 4.7066 5.41989 4.94388 5.43749C5.31002 5.46459 5.67426 5.36569 6.03803 5.38423C6.33427 5.39945 6.63384 5.39469 6.92818 5.44082C7.07749 5.46412 7.21871 5.4722 7.37135 5.43369C7.5373 5.39232 7.70183 5.4917 7.87396 5.4917C8.06322 5.4917 8.24962 5.53925 8.43126 5.59346C8.63478 5.65385 8.68613 5.83834 8.53778 5.98813C8.31143 6.21685 8.01567 6.31718 7.70944 6.36188C7.45599 6.39897 7.19732 6.42036 6.94197 6.43368C6.67188 6.44747 6.39989 6.54067 6.12599 6.45032C6.07892 6.43463 6.02043 6.4313 5.97288 6.44414C5.65429 6.53164 5.32286 6.47267 5.00189 6.53544C4.90299 6.55493 4.79457 6.54828 4.69376 6.53259C4.55396 6.51071 4.41987 6.51452 4.28673 6.55826C4.1165 6.61437 3.94722 6.54305 3.77651 6.54637C3.6039 6.5497 3.43272 6.55588 3.26914 6.59725C3.01189 6.66287 2.75607 6.62626 2.50547 6.59963C2.27913 6.57586 2.06087 6.59583 1.83786 6.60153C1.62721 6.60724 1.40705 6.62531 1.19973 6.5887C0.96435 6.54685 0.862114 6.33192 0.776047 6.13553C0.699014 5.9596 0.807432 5.82978 0.925833 5.7033C1.10034 5.51642 1.30148 5.41656 1.56064 5.43416C1.64528 5.43986 1.73135 5.42417 1.76416 5.42227L1.76273 5.42275Z" fill="#1C1D1E"/>
<path d="M8.38513 9.81513C8.08651 9.81751 7.85731 9.55075 7.90724 9.24071C7.94005 9.03577 8.01518 8.84414 8.14833 8.67771C8.25056 8.5498 8.35422 8.42094 8.43839 8.28114C8.73177 7.79184 9.05322 7.32394 9.43838 6.90169C9.47214 6.8646 9.49972 6.81657 9.51637 6.76902C9.61575 6.48419 9.81499 6.26783 10.0095 6.0491C10.1279 5.91596 10.1383 5.81705 10.0033 5.69913C9.8245 5.54268 9.68469 5.36389 9.58531 5.14801C9.51494 4.99585 9.36658 4.9074 9.25816 4.78615C9.10743 4.61734 9.01043 4.41097 8.90439 4.21649C8.75745 3.94688 8.5449 3.73195 8.37229 3.48563C8.19825 3.23742 8.05227 2.97399 7.94671 2.68916C7.92294 2.62496 7.90629 2.55649 7.89964 2.48849C7.88775 2.36011 7.96573 2.28022 8.06607 2.21793C8.16069 2.15897 8.2458 2.18369 8.32949 2.24598C8.49497 2.36914 8.67043 2.47423 8.79882 2.64731C8.96287 2.86795 9.21299 3.01393 9.35517 3.25739C9.72987 3.47089 9.91008 3.8551 10.1659 4.17417C10.3162 4.36152 10.4997 4.52367 10.6761 4.6882C10.8183 4.82086 10.9343 4.96589 10.9857 5.15657C11.0156 5.26736 11.0822 5.35676 11.144 5.45139C11.2914 5.67725 11.2819 5.9074 11.1374 6.13279C10.9239 6.46565 10.747 6.82228 10.5049 7.13706C10.2539 7.46374 10.0875 7.84985 9.79501 8.14847C9.61717 8.33011 9.52302 8.56359 9.41318 8.7885C9.26149 9.09901 9.08222 9.39383 8.82782 9.63348C8.68755 9.7652 8.55917 9.81418 8.38656 9.8156L8.38513 9.81513Z" fill="#1C1D1E"/>
</svg>
